<?xml version="1.0" encoding="utf-8"?>
<!-- Generator: Adobe Illustrator 24.3.0, SVG Export Plug-In . SVG Version: 6.00 Build 0)  -->
<svg version="1.1" id="레이어_1" xmlns="http://www.w3.org/2000/svg" xmlns:xlink="http://www.w3.org/1999/xlink" x="0px"
	 y="0px" viewBox="0 0 860.8 148.1" style="enable-background:new 0 0 860.8 148.1;" xml:space="preserve">
<style type="text/css">
	.st0{fill:#FFFFFF;}
	.st1{fill:#E2F1FF;}
</style>
<path class="st0" d="M35.7,144V86.8h56.7V144h33.4V2.6H92.4v57.1H35.7V2.6H2.4V144H35.7z M147.1,2.6V144h33.3V2.6H147.1z
	 M310.2,44.7C310,18.4,289,0.6,256.4,0.6c-32.1,0-55.2,17.5-55.1,43.7c-0.1,21.4,14.9,33.4,39.3,39.1l14.8,3.5
	c15.5,3.6,22.9,7.9,22.9,16.1c-0.1,9-8.5,15.2-22.5,15.2c-15.3,0-25.4-7-26.2-20.7h-32c0.6,32.5,23.3,48.4,58.6,48.4
	c35.1,0,55.8-16.1,55.9-42.8C312,80.3,296.3,66.8,269,60.8L256.8,58c-12.7-2.8-21.3-7.1-21.1-15.9c0.1-8,7-13.8,20.5-13.8
	c13.5,0,21.1,6.1,22,16.4H310.2z M367.5,29.8V144h32.9V29.8h43V2.6H324.5v27.2H367.5z M586.3,73.3c0-46.6-29.4-72.7-67.3-72.7
	c-38.1,0-67.3,26-67.3,72.7c0,46.4,29.2,72.7,67.3,72.7C556.9,145.9,586.3,119.9,586.3,73.3z M552.3,73.3
	c0,28.1-12.6,43.4-33.3,43.4c-20.6,0-33.2-15.3-33.2-43.4c0-28.1,12.6-43.4,33.2-43.4C539.7,29.9,552.3,45.2,552.3,73.3z M720.1,144
	l-29.5-54c15.6-7.1,24.6-21,24.6-40.5c0-28.9-19.6-47-51.5-47h-57.9V144h33.3V95.3h18.4l26,48.7H720.1z M656.7,29.6
	c15.7,0,24,6.6,24,20c0,13.3-8.3,19.3-24,19.3h-17.5V29.6H656.7z M772,96.2V144h33.1V96.2l51.7-93.6h-37.3L789.1,62h-1.2L757.5,2.6
	h-37.3L772,96.2z"/>
<path class="st1" d="M35.7,144v2h2v-2H35.7z M35.7,86.8v-2h-2v2H35.7z M92.4,86.8h2v-2h-2V86.8z M92.4,144h-2v2h2V144z M125.7,144v2
	h2v-2H125.7z M125.7,2.6h2v-2h-2V2.6z M92.4,2.6v-2h-2v2H92.4z M92.4,59.7v2h2v-2H92.4z M35.7,59.7h-2v2h2V59.7z M35.7,2.6h2v-2h-2
	V2.6z M2.4,2.6v-2h-2v2H2.4z M2.4,144h-2v2h2V144z M37.7,144V86.8h-4V144H37.7z M35.7,88.8h56.7v-4H35.7V88.8z M90.4,86.8V144h4
	V86.8H90.4z M92.4,146h33.4v-4H92.4V146z M127.7,144V2.6h-4V144H127.7z M125.7,0.6H92.4v4h33.4V0.6z M90.4,2.6v57.1h4V2.6H90.4z
	 M92.4,57.7H35.7v4h56.7V57.7z M37.7,59.7V2.6h-4v57.1H37.7z M35.7,0.6H2.4v4h33.3V0.6z M0.4,2.6V144h4V2.6H0.4z M2.4,146h33.3v-4
	H2.4V146z M147.1,2.6v-2h-2v2H147.1z M147.1,144h-2v2h2V144z M180.4,144v2h2v-2H180.4z M180.4,2.6h2v-2h-2V2.6z M145.1,2.6V144h4
	V2.6H145.1z M147.1,146h33.3v-4h-33.3V146z M182.4,144V2.6h-4V144H182.4z M180.4,0.6h-33.3v4h33.3V0.6z M310.2,44.7v2h2l0-2
	L310.2,44.7z M201.3,44.3l2,0v0v0L201.3,44.3z M240.6,83.4l0.5-1.9l0,0L240.6,83.4z M255.4,86.9l-0.5,1.9l0,0L255.4,86.9z
	 M278.3,103l2,0v0v0L278.3,103z M229.6,97.5l2-0.1l-0.1-1.9h-1.9V97.5z M197.6,97.5v-2h-2l0,2L197.6,97.5z M312.2,103l2,0v0v0
	L312.2,103z M269,60.8l-0.5,1.9l0,0l0,0L269,60.8z M256.8,58l0.5-1.9l0,0l0,0L256.8,58z M235.7,42.1l2,0.1v0l0,0L235.7,42.1z
	 M278.3,44.7l-2,0.2l0.2,1.8h1.8V44.7z M312.2,44.7c-0.1-13.7-5.7-25.3-15.5-33.4C286.9,3.2,273-1.4,256.4-1.4v4
	c15.9,0,28.9,4.4,37.8,11.7c8.9,7.3,14,17.8,14.1,30.4L312.2,44.7z M256.4-1.4c-16.4,0-30.7,4.5-40.9,12.5
	c-10.2,8-16.3,19.5-16.2,33.3l4,0c-0.1-12.4,5.4-22.8,14.7-30.1c9.4-7.3,22.7-11.6,38.4-11.6V-1.4z M199.3,44.3
	c0,11.2,3.9,20.1,11.1,26.9c7.1,6.7,17.4,11.3,29.7,14.1l0.9-3.9c-12-2.8-21.5-7.1-27.9-13.1c-6.4-6-9.9-13.8-9.9-24L199.3,44.3z
	 M240.1,85.4l14.8,3.5l0.9-3.9L241,81.5L240.1,85.4z M255,88.8c7.7,1.8,13.1,3.7,16.6,6c3.3,2.2,4.8,4.8,4.8,8.1l4,0
	c0-4.9-2.3-8.6-6.5-11.4c-4.1-2.8-10.1-4.8-17.9-6.6L255,88.8z M276.3,103c0,3.8-1.8,7-5.2,9.4c-3.4,2.4-8.6,3.8-15.4,3.8v4
	c7.3,0,13.3-1.6,17.6-4.6c4.4-3,6.9-7.4,6.9-12.6L276.3,103z M255.8,116.2c-7.4,0-13.2-1.7-17.3-4.8c-4-3.1-6.5-7.7-6.9-14l-4,0.2
	c0.4,7.4,3.4,13.1,8.5,17c5,3.8,11.8,5.6,19.7,5.6V116.2z M229.6,95.5h-32v4h32V95.5z M195.6,97.5c0.3,16.8,6.3,29.5,17,37.9
	c10.6,8.4,25.7,12.4,43.6,12.4v-4c-17.4,0-31.4-3.9-41.1-11.6c-9.6-7.6-15.2-19.1-15.5-34.9L195.6,97.5z M256.2,147.9
	c17.8,0,32.2-4.1,42.3-11.8c10.1-7.8,15.6-19.1,15.6-33l-4,0c-0.1,12.8-5,22.9-14.1,29.9c-9.1,7-22.6,11-39.9,11V147.9z M314.2,103
	c-0.1-11.9-4.2-21.5-12-28.8c-7.7-7.3-18.9-12.3-32.7-15.4l-0.9,3.9c13.4,3,23.8,7.7,30.8,14.4c6.9,6.6,10.7,15.1,10.8,26L314.2,103
	z M269.5,58.8L257.2,56l-0.9,3.9l12.2,2.8L269.5,58.8z M257.2,56c-6.3-1.4-11.3-3.1-14.7-5.4c-3.3-2.2-4.9-4.9-4.8-8.5l-4-0.1
	c-0.2,5.2,2.4,9.1,6.5,11.9c4,2.7,9.7,4.6,16.1,6L257.2,56z M237.7,42.1c0-3.4,1.5-6.2,4.4-8.3c3-2.1,7.6-3.5,14.1-3.5v-4
	c-7,0-12.6,1.5-16.5,4.3c-3.9,2.8-6,6.9-6,11.5L237.7,42.1z M256.2,30.3c6.5,0,11.3,1.5,14.5,3.9c3.2,2.4,5.1,6,5.5,10.7l4-0.3
	c-0.5-5.7-2.8-10.3-7.1-13.5c-4.2-3.2-9.9-4.7-17-4.7V30.3z M278.3,46.7h32v-4h-32V46.7z M367.5,29.8h2v-2h-2V29.8z M367.5,144h-2v2
	h2V144z M400.5,144v2h2v-2H400.5z M400.5,29.8v-2h-2v2H400.5z M443.4,29.8v2h2v-2H443.4z M443.4,2.6h2v-2h-2V2.6z M324.5,2.6v-2h-2
	v2H324.5z M324.5,29.8h-2v2h2V29.8z M365.5,29.8V144h4V29.8H365.5z M367.5,146h32.9v-4h-32.9V146z M402.5,144V29.8h-4V144H402.5z
	 M400.5,31.8h43v-4h-43V31.8z M445.4,29.8V2.6h-4v27.2H445.4z M443.4,0.6H324.5v4h118.9V0.6z M322.5,2.6v27.2h4V2.6H322.5z
	 M324.5,31.8h43v-4h-43V31.8z M588.3,73.3c0-23.7-7.5-42.4-20-55.2C555.8,5.3,538.4-1.4,519-1.4v4c18.5,0,34.7,6.3,46.4,18.2
	c11.7,11.9,18.9,29.5,18.9,52.4H588.3z M519-1.4c-19.5,0-36.8,6.7-49.3,19.4c-12.5,12.8-19.9,31.5-19.9,55.2h4
	c0-22.9,7.2-40.5,18.8-52.4C484.2,9,500.5,2.6,519,2.6V-1.4z M449.8,73.3c0,23.6,7.4,42.3,19.9,55.1c12.5,12.8,29.8,19.5,49.3,19.5
	v-4c-18.6,0-34.8-6.4-46.5-18.3c-11.6-11.9-18.8-29.6-18.8-52.3H449.8z M519,147.9c19.4,0,36.7-6.7,49.3-19.4
	c12.5-12.8,20-31.5,20-55.2h-4c0,22.9-7.2,40.5-18.9,52.4c-11.7,11.9-27.9,18.2-46.4,18.2V147.9z M550.3,73.3
	c0,13.8-3.1,24.1-8.5,31c-5.3,6.8-13,10.4-22.8,10.4v4c10.9,0,19.8-4,26-11.9c6.1-7.8,9.3-19.1,9.3-33.5H550.3z M519,114.7
	c-9.8,0-17.5-3.6-22.8-10.4c-5.4-6.9-8.4-17.2-8.4-31h-4c0,14.3,3.2,25.7,9.3,33.5c6.1,7.9,15.1,11.9,25.9,11.9V114.7z M487.8,73.3
	c0-13.8,3.1-24.1,8.4-31c5.3-6.8,13-10.4,22.8-10.4v-4c-10.9,0-19.8,4-25.9,11.9c-6.1,7.8-9.3,19.1-9.3,33.5H487.8z M519,31.9
	c9.8,0,17.5,3.6,22.8,10.4c5.4,6.9,8.5,17.2,8.5,31h4c0-14.3-3.2-25.7-9.3-33.5c-6.2-7.9-15.1-11.9-26-11.9V31.9z M720.1,144v2h3.4
	l-1.6-3L720.1,144z M690.6,90l-0.8-1.8l-2,0.9l1,1.9L690.6,90z M605.9,2.6v-2h-2v2H605.9z M605.9,144h-2v2h2V144z M639.2,144v2h2v-2
	H639.2z M639.2,95.3v-2h-2v2H639.2z M657.6,95.3l1.8-0.9l-0.6-1.1h-1.2V95.3z M683.6,144l-1.8,0.9l0.6,1.1h1.2V144z M639.2,68.9h-2
	v2h2V68.9z M639.2,29.6v-2h-2v2H639.2z M721.9,143l-29.5-54l-3.5,1.9l29.5,54L721.9,143z M691.5,91.8c16.4-7.5,25.8-22.1,25.8-42.3
	h-4c0,18.8-8.6,31.9-23.4,38.6L691.5,91.8z M717.2,49.5c0-14.9-5.1-27.2-14.4-35.8c-9.3-8.5-22.7-13.2-39-13.2v4
	c15.5,0,27.9,4.4,36.3,12.1c8.4,7.7,13.1,18.9,13.1,32.9H717.2z M663.8,0.6h-57.9v4h57.9V0.6z M603.9,2.6V144h4V2.6H603.9z
	 M605.9,146h33.3v-4h-33.3V146z M641.2,144V95.3h-4V144H641.2z M639.2,97.3h18.4v-4h-18.4V97.3z M655.9,96.3l26,48.7l3.5-1.9
	l-26-48.7L655.9,96.3z M683.6,146h36.5v-4h-36.5V146z M656.7,31.6c7.6,0,13.1,1.6,16.6,4.5c3.5,2.9,5.4,7.2,5.4,13.4h4
	c0-7.1-2.2-12.7-6.8-16.5c-4.5-3.7-11.1-5.4-19.1-5.4V31.6z M678.7,49.5c0,6.2-1.9,10.4-5.3,13.1c-3.5,2.8-9,4.3-16.6,4.3v4
	c8,0,14.6-1.5,19.1-5.1c4.6-3.7,6.9-9.1,6.9-16.2H678.7z M656.7,66.9h-17.5v4h17.5V66.9z M641.2,68.9V29.6h-4v39.3H641.2z
	 M639.2,31.6h17.5v-4h-17.5V31.6z M772,96.2h2v-0.5l-0.2-0.5L772,96.2z M772,144h-2v2h2V144z M805.1,144v2h2v-2H805.1z M805.1,96.2
	l-1.8-1l-0.2,0.5v0.5H805.1z M856.8,2.6l1.8,1l1.6-3h-3.4V2.6z M819.5,2.6v-2h-1.2l-0.6,1.1L819.5,2.6z M789.1,62v2h1.2l0.6-1.1
	L789.1,62z M787.9,62l-1.8,0.9l0.6,1.1h1.2V62z M757.5,2.6l1.8-0.9l-0.6-1.1h-1.2V2.6z M720.2,2.6v-2h-3.4l1.6,3L720.2,2.6z
	 M770,96.2V144h4V96.2H770z M772,146h33.1v-4H772V146z M807.1,144V96.2h-4V144H807.1z M806.8,97.2l51.7-93.6l-3.5-1.9l-51.7,93.6
	L806.8,97.2z M856.8,0.6h-37.3v4h37.3V0.6z M817.7,1.7l-30.4,59.5l3.6,1.8l30.4-59.5L817.7,1.7z M789.1,60h-1.2v4h1.2V60z
	 M789.7,61.1L759.3,1.7l-3.6,1.8l30.4,59.5L789.7,61.1z M757.5,0.6h-37.3v4h37.3V0.6z M718.5,3.5l51.8,93.6l3.5-1.9L722,1.6
	L718.5,3.5z"/>
</svg>
