<?xml version="1.0" encoding="UTF-8" standalone="no"?>
<!-- Created with Inkscape (http://www.inkscape.org/) -->

<svg
   width="199.42953mm"
   height="32.257862mm"
   viewBox="0 0 199.42953 32.257862"
   version="1.1"
   id="svg1"
   xml:space="preserve"
   xmlns="http://www.w3.org/2000/svg"
   xmlns:svg="http://www.w3.org/2000/svg"><defs
     id="defs1" /><g
     id="layer1"
     transform="translate(-5.2866727,-33.871067)"><path
       d="M 16.406783,55.820839 5.3083816,35.021038 h 9.1581214 l 5.898451,12.34018 h 0.271639 l 5.898451,-12.34018 h 9.158122 L 24.594764,55.820839 v 9.507372 h -8.187981 z m 32.24749,10.283484 q -3.453699,0 -6.131285,-1.474613 -2.638781,-1.474613 -4.113394,-4.113393 -1.474612,-2.677587 -1.474612,-6.131285 0,-3.570115 1.513418,-6.364118 1.474613,-2.794004 4.113394,-4.307422 2.677586,-1.552224 6.092479,-1.552224 3.492504,0 6.131284,1.552224 2.638781,1.552224 4.074588,4.307422 1.435807,2.755197 1.435807,6.247701 0,3.570115 -1.474612,6.247702 -1.474613,2.677586 -4.113394,4.113393 -2.638781,1.474613 -6.053673,1.474613 z m 0,-6.286507 q 1.901474,0 3.143253,-1.629835 1.280585,-1.629836 1.280585,-4.191005 0,-2.444753 -1.280585,-3.996977 -1.241779,-1.552224 -3.220865,-1.552224 -1.94028,0 -3.182059,1.59103 -1.241779,1.552224 -1.241779,4.074588 0,2.522364 1.241779,4.113393 1.280585,1.59103 3.259671,1.59103 z M 63.322802,33.895675 h 7.450675 v 6.946203 l -0.27164,4.268616 q 1.552224,-1.125363 3.143254,-1.862669 1.59103,-0.737306 2.91042,-0.931334 0.814918,-0.116417 1.59103,-0.116417 3.570115,0 5.626811,2.405947 2.095503,2.405947 2.095503,6.868591 V 65.328211 H 78.41818 V 52.910419 q 0,-2.250725 -0.62089,-3.298476 -0.620889,-1.086557 -1.94028,-1.086557 -0.232833,0 -1.31939,0.194028 -1.94028,0.543279 -3.764143,2.017892 v 14.590905 h -7.450675 z m 34.925051,32.208648 q -2.444753,0 -4.540255,-1.280585 -2.250725,-1.31939 -3.492504,-3.996977 -1.241779,-2.716392 -1.241779,-6.441729 0,-3.647726 1.358196,-6.558146 1.31939,-2.755198 3.647726,-4.191005 2.367142,-1.474613 5.393978,-1.474613 0.62089,0 1.164165,0.155223 0.58209,0.155222 0.89253,0.426861 l 3.10445,6.17009 h 0.27164 v -5.820839 h 7.45067 v 22.235608 h -6.71336 l -0.50448,-2.328336 q -2.28953,3.104448 -6.790977,3.104448 z m 2.173117,-6.286507 q 1.59103,0 2.83281,-1.164168 1.28058,-1.202974 1.55222,-2.832809 v -4.889505 q -1.97909,-2.483559 -4.19101,-2.483559 -2.017887,0 -3.182055,1.474613 -1.164168,1.474613 -1.164168,3.996977 0,2.794003 1.086557,4.346227 1.086557,1.552224 3.065646,1.552224 z m 15.4834,-16.725213 h 6.86859 l 0.58208,1.823863 q 1.43581,-1.047752 2.94923,-1.746252 1.55222,-0.698501 2.83281,-0.853723 0.81491,-0.116417 1.59103,-0.116417 3.57011,0 5.62681,2.405947 2.0955,2.405947 2.0955,6.868591 v 13.853599 h -7.45067 V 52.910419 q 0,-2.250725 -0.62089,-3.298476 -0.62089,-1.086557 -1.94028,-1.086557 -0.23284,0 -1.31939,0.194028 -1.94028,0.543279 -3.76415,2.017892 v 14.590905 h -7.45067 z m 35.62357,-8.071565 h 10.3999 q 8.3044,0 12.34018,3.725337 4.03579,3.725338 4.03579,11.29243 0,5.044728 -1.70745,8.576037 -1.74625,3.414893 -4.81189,5.083534 -3.02684,1.707446 -7.17904,1.629835 l -4.77309,-6.131285 h -0.0776 v 6.131285 h -8.22679 z m 10.98199,23.205748 q 3.64772,0 5.588,-2.056697 1.97909,-2.095502 1.97909,-6.014867 0,-3.88056 -1.90148,-5.937257 -1.86266,-2.095502 -5.35517,-2.095502 h -3.06564 v 16.104323 z m 30.54001,7.877537 q -3.4537,0 -6.13129,-1.474613 -2.63878,-1.474613 -4.11339,-4.113393 -1.47461,-2.677587 -1.47461,-6.131285 0,-3.570115 1.51342,-6.364118 1.47461,-2.794004 4.11339,-4.307422 2.67759,-1.552224 6.09248,-1.552224 3.4925,0 6.13128,1.552224 2.63878,1.552224 4.07459,4.307422 1.43581,2.755197 1.43581,6.247701 0,3.570115 -1.47461,6.247702 -1.47462,2.677586 -4.1134,4.113393 -2.63878,1.474613 -6.05367,1.474613 z m 0,-6.286507 q 1.90147,0 3.14325,-1.629835 1.28059,-1.629836 1.28059,-4.191005 0,-2.444753 -1.28059,-3.996977 -1.24178,-1.552224 -3.22086,-1.552224 -1.94028,0 -3.18206,1.59103 -1.24178,1.552224 -1.24178,4.074588 0,2.522364 1.24178,4.113393 1.28058,1.59103 3.25967,1.59103 z"
       id="text1"
       style="font-weight:bold;font-size:38.8056px;font-family:'KBO Dia Gothic';-inkscape-font-specification:'KBO Dia Gothic, Bold';fill:#ffffff;stroke:#ffffff;stroke-width:0.0492125;stroke-linejoin:bevel;paint-order:markers stroke fill"
       aria-label="Yohan Do" /></g></svg>
