<?xml version="1.0" encoding="utf-8"?>
<!-- Generator: Adobe Illustrator 24.3.0, SVG Export Plug-In . SVG Version: 6.00 Build 0)  -->
<svg version="1.1" id="Layer_1" xmlns="http://www.w3.org/2000/svg" xmlns:xlink="http://www.w3.org/1999/xlink" x="0px" y="0px"
	 viewBox="0 0 258.09 39.55" style="enable-background:new 0 0 258.09 39.55;" xml:space="preserve">
<style type="text/css">
	.st0{fill:#1A75BC;}
	.st1{fill:#FFFFFF;}
	.st2{fill:#666666;}
	.st3{filter:url(#Adobe_OpacityMaskFilter);}
	.st4{filter:url(#Adobe_OpacityMaskFilter_1_);}
	.st5{mask:url(#SVGID_1_);fill:url(#SVGID_2_);}
	.st6{fill:url(#SVGID_3_);}
	.st7{filter:url(#Adobe_OpacityMaskFilter_2_);}
	.st8{filter:url(#Adobe_OpacityMaskFilter_3_);}
	.st9{mask:url(#SVGID_4_);fill:url(#SVGID_5_);}
	.st10{fill:url(#SVGID_6_);}
	.st11{filter:url(#Adobe_OpacityMaskFilter_4_);}
	.st12{filter:url(#Adobe_OpacityMaskFilter_5_);}
	.st13{mask:url(#SVGID_7_);fill:url(#SVGID_8_);}
	.st14{fill:url(#SVGID_9_);}
	.st15{filter:url(#Adobe_OpacityMaskFilter_6_);}
	.st16{filter:url(#Adobe_OpacityMaskFilter_7_);}
	.st17{mask:url(#SVGID_10_);fill:url(#SVGID_11_);}
	.st18{fill:url(#SVGID_12_);}
	.st19{filter:url(#Adobe_OpacityMaskFilter_8_);}
	.st20{filter:url(#Adobe_OpacityMaskFilter_9_);}
	.st21{mask:url(#SVGID_13_);fill:url(#SVGID_14_);}
	.st22{fill:url(#SVGID_15_);}
	.st23{filter:url(#Adobe_OpacityMaskFilter_10_);}
	.st24{filter:url(#Adobe_OpacityMaskFilter_11_);}
	.st25{mask:url(#SVGID_16_);fill:url(#SVGID_17_);}
	.st26{fill:url(#SVGID_18_);}
	.st27{fill:#808284;}
	.st28{fill:#939598;}
	.st29{fill:none;stroke:#CCCCCC;stroke-width:0.1463;}
	.st30{fill:none;stroke:#CCCCCC;stroke-width:0.2926;}
</style>
<g>
	<g>
		<path class="st0" d="M227.83,9.67c0,0-0.23,0.33-0.56,0.94C227.45,10.29,227.63,9.97,227.83,9.67z"/>
		<path class="st0" d="M258.01,31.86c-0.05-0.21-0.11-0.42-0.19-0.6c-0.11-0.29-0.21-0.49-0.33-0.69c-0.12-0.21-0.27-0.41-0.44-0.61
			c-0.16-0.18-0.35-0.35-0.53-0.48c-0.22-0.15-0.46-0.29-0.71-0.4c-0.22-0.08-0.52-0.17-0.83-0.23c-0.32-0.06-0.66-0.09-1.02-0.09
			h-0.26c-0.17,0.04-0.34,0.06-0.52,0.06h-0.26c-0.05,0.02-0.12,0.03-0.2,0.04c-0.11,0.03-0.21,0.05-0.31,0.07
			c-0.07,0.01-0.15,0.03-0.22,0.04c-0.08,0.03-0.16,0.04-0.24,0.06c-0.02,0.01-0.04,0.01-0.05,0.02c-0.06,0.02-0.11,0.04-0.17,0.06
			c-0.64,0.24-1.29,0.44-1.92,0.6c-0.64,0.16-1.24,0.3-1.79,0.42c-0.61,0.13-1.2,0.23-1.77,0.29c-2.09,0.23-3.82,0.05-5.33-0.46
			c-1.12-0.38-2.13-0.97-3-1.74c-0.88-0.83-1.58-1.79-2.11-2.88c-0.51-1.04-0.9-2.25-1.16-3.59c-0.04-0.12-0.08-0.35-0.1-0.58
			c-0.02-0.15-0.03-0.31-0.04-0.48c-0.04-0.22-0.06-0.43-0.06-0.64v-0.9c0-0.21,0.02-0.43,0.06-0.64v-0.05
			c0-0.19,0.02-0.39,0.07-0.59c0.01-0.09,0.03-0.18,0.05-0.27c0-0.09,0.02-0.18,0.04-0.27c0.3-1.36,0.77-2.59,1.37-3.66
			c0.63-1.12,1.43-2.07,2.37-2.82c0.89-0.76,1.91-1.36,3.01-1.76c1.1-0.4,2.3-0.6,3.58-0.6h0.2c0.55,0,0.96,0.01,1.32,0.03
			c0.4,0.02,0.74,0.06,1.02,0.11c0.27,0.04,0.5,0.09,0.7,0.13c0.19,0.04,0.37,0.08,0.54,0.13c0.06,0.01,0.11,0.03,0.17,0.05
			l1.37,0.49c0.35,0.13,0.63,0.23,0.85,0.3c0.2,0.07,0.38,0.12,0.57,0.17c0.14,0.03,0.21,0.04,0.22,0.04c0.17,0,0.33,0.02,0.48,0.07
			c0.15,0.02,0.29,0.05,0.42,0.1c0.11,0.02,0.21,0.03,0.3,0.04c0.11,0.01,0.21,0.02,0.31,0.02h0.87c0.34,0,0.66-0.02,0.96-0.07
			c0.3-0.04,0.47-0.1,0.56-0.14c0.04-0.02,0.15-0.08,0.26-0.15c0.05-0.03,0.11-0.07,0.17-0.11c0.12-0.11,0.24-0.23,0.37-0.34
			c0.05-0.04,0.1-0.09,0.15-0.14c0.05-0.07,0.1-0.14,0.16-0.21c0.07-0.11,0.15-0.21,0.23-0.29l0.14-0.14
			c0.09-0.12,0.17-0.24,0.24-0.37c0.1-0.19,0.19-0.39,0.28-0.59c0.06-0.23,0.11-0.46,0.15-0.68c0.03-0.15,0.05-0.33,0.05-0.52
			c-0.04-0.15-0.06-0.3-0.06-0.45V5.92c-0.03-0.13-0.05-0.27-0.06-0.41c-0.12-0.55-0.38-1.06-0.79-1.56
			c-0.54-0.65-1.27-1.31-2.18-1.95c-0.88-0.6-2.01-1.07-3.33-1.39c-1.39-0.33-3.02-0.5-4.84-0.5c-0.36,0-0.7,0.01-1.04,0.03
			c-0.34,0.02-0.69,0.05-1.05,0.08c-0.41,0.04-0.83,0.07-1.25,0.09c-0.31,0.02-0.65,0.06-1,0.12c-1.39,0.19-2.67,0.49-3.87,0.89
			c-1.22,0.41-2.42,0.93-3.57,1.54c-1.07,0.59-2.1,1.29-3.03,2.08c-0.95,0.81-1.85,1.71-2.67,2.68c-0.5,0.64-1.01,1.34-1.46,2.04
			c-0.2,0.31-0.38,0.62-0.56,0.94c-1.39,2.57-4.53,10.15,0.63,19.17c0.37,0.59,0.78,1.18,1.24,1.73c0.08,0.1,0.16,0.21,0.21,0.33
			c0.15,0.18,0.3,0.36,0.46,0.54c0.28,0.31,0.57,0.62,0.85,0.94c0.18,0.18,0.45,0.43,0.72,0.69c0.24,0.23,0.49,0.44,0.76,0.64
			c0.73,0.61,1.44,1.11,2.17,1.55c0.78,0.47,1.58,0.9,2.38,1.3c0.73,0.32,1.59,0.62,2.46,0.87c0.83,0.24,1.71,0.39,2.59,0.46
			c0.07,0,0.14,0.02,0.21,0.03c0.3,0.06,0.59,0.1,0.88,0.11c0.4,0.02,0.8,0.05,1.18,0.1c0.31,0.03,0.63,0.06,0.94,0.08
			c0.91,0.05,1.83,0.03,2.74-0.05c0.62-0.05,1.23-0.12,1.83-0.2c0.57-0.04,1.03-0.11,1.47-0.22c0.47-0.12,0.92-0.26,1.36-0.43
			c0.7-0.26,1.3-0.52,1.82-0.77c0.48-0.24,0.92-0.51,1.3-0.8c0.44-0.3,0.76-0.55,1.03-0.82c0.27-0.27,0.49-0.53,0.65-0.78
			c0.11-0.15,0.15-0.22,0.18-0.28l0.23-0.46c0.03-0.07,0.07-0.13,0.11-0.19c0.04-0.06,0.08-0.14,0.13-0.23
			c0.02-0.04,0.03-0.08,0.04-0.1l0.19-0.74c0.01-0.12,0.02-0.25,0.04-0.39c0.01-0.07,0.01-0.16,0.01-0.24
			C258.09,32.26,258.06,32.07,258.01,31.86z"/>
	</g>
	<g>
		<path class="st0" d="M29.61,21.76c-0.45-0.77-1.02-1.48-1.68-2.1c-0.67-0.62-1.47-1.18-2.38-1.65c-0.09-0.04-0.22-0.1-0.37-0.16
			c-0.23-0.09-0.46-0.2-0.69-0.34c-0.14-0.06-0.29-0.11-0.45-0.17c-0.23-0.08-0.45-0.17-0.66-0.25c-0.04-0.02-0.09-0.04-0.13-0.06
			c-0.29-0.14-0.62-0.27-0.99-0.38c-0.48-0.14-0.98-0.31-1.5-0.51l-3.71-1.01l-4.57-1.1c-0.04-0.01-0.09-0.02-0.13-0.04l-0.18-0.06
			c-0.17-0.04-0.37-0.11-0.56-0.21c-0.16-0.08-0.29-0.16-0.41-0.23c-0.15-0.08-0.32-0.19-0.44-0.31l-0.27-0.27
			c-0.12-0.12-0.22-0.26-0.3-0.41c-0.09-0.17-0.15-0.32-0.19-0.45c-0.08-0.21-0.12-0.47-0.12-0.75c0-0.23,0.03-0.45,0.08-0.67
			c0.04-0.18,0.12-0.38,0.21-0.57c0.09-0.17,0.2-0.33,0.33-0.46c0.07-0.14,0.22-0.34,0.4-0.51c0.21-0.21,0.45-0.38,0.73-0.52
			c0.24-0.12,0.49-0.21,0.76-0.28c0.12-0.04,0.37-0.1,0.67-0.13c0.23-0.02,0.49-0.04,0.8-0.04h0.64c0.1,0,0.2,0.01,0.29,0.02
			c0.2-0.04,0.41-0.03,0.62,0.01l1.42,0.29l2.38,0.59L21,9.6c0.09,0.03,0.18,0.06,0.26,0.1l0.35,0.17c0.22,0.07,0.44,0.12,0.65,0.16
			c0.34,0.06,0.65,0.13,0.94,0.21c0.23,0.03,0.45,0.05,0.65,0.06c0.6,0.04,1.22,0.03,1.7-0.08c0.27-0.06,0.5-0.15,0.71-0.26
			c0.23-0.13,0.48-0.31,0.73-0.53C27.22,9.24,27.43,9,27.61,8.7c0.03-0.05,0.07-0.1,0.11-0.15c0.08-0.1,0.15-0.21,0.21-0.33
			c0.07-0.14,0.13-0.3,0.18-0.46c0.05-0.18,0.09-0.38,0.12-0.59c0.02-0.2,0.04-0.41,0.04-0.61v-0.2c-0.04-0.17-0.06-0.34-0.06-0.52
			v-0.1c-0.03-0.18-0.06-0.36-0.08-0.53c-0.05-0.11-0.07-0.12-0.1-0.23c-0.1-0.39-0.27-0.75-0.51-1.08C27.3,3.55,27,3.25,26.61,2.98
			c-0.04-0.03-0.07-0.06-0.11-0.08c-0.37-0.32-0.91-0.63-1.58-0.93c-0.77-0.34-1.69-0.68-2.74-1c-0.46-0.14-0.92-0.27-1.37-0.38
			C20.42,0.49,20,0.43,19.55,0.39c-0.05,0-0.09-0.01-0.14-0.02c-0.46-0.07-0.92-0.12-1.4-0.16c-0.48-0.04-0.97-0.05-1.47-0.05h-0.83
			c-0.15,0.04-0.31,0.06-0.48,0.06h-0.33c-0.16,0.04-0.32,0.06-0.48,0.06h-0.27c-0.16,0.04-0.32,0.06-0.48,0.06h-0.1
			C12.44,0.48,11.36,0.7,10.36,1C9.32,1.3,8.33,1.67,7.41,2.1C6.56,2.5,5.76,2.97,5.06,3.49C4.36,4,3.73,4.56,3.18,5.13
			c-0.32,0.39-0.68,0.85-1,1.31c-0.3,0.43-0.57,0.89-0.8,1.35C1.14,8.28,0.94,8.76,0.77,9.23c-0.16,0.43-0.26,0.86-0.32,1.28
			l-0.13,0.67c-0.02,0.08-0.03,0.16-0.03,0.25c0,0.14-0.02,0.29-0.05,0.43l-0.01,0.62c0,0.79,0.09,1.56,0.27,2.29
			c0.18,0.73,0.45,1.45,0.81,2.13c0.36,0.68,0.79,1.3,1.28,1.84c0.49,0.54,1.08,1.02,1.75,1.43c0.28,0.18,0.57,0.34,0.9,0.5
			c0.38,0.19,0.76,0.37,1.16,0.56c0.38,0.17,0.8,0.34,1.25,0.49c0.42,0.15,0.9,0.27,1.43,0.37c0.05,0.01,0.11,0.02,0.16,0.04
			l4.27,1.19l4,1.03l1.19,0.44c0.08,0.03,0.15,0.06,0.22,0.1c0.03,0.01,0.05,0.02,0.08,0.02c0.04,0.01,0.07,0.03,0.11,0.04
			c0.22,0.07,0.44,0.18,0.61,0.34c0.12,0.07,0.22,0.16,0.32,0.26c0.11,0.11,0.21,0.23,0.28,0.36c0.08,0.1,0.14,0.2,0.2,0.31
			c0.1,0.19,0.17,0.4,0.22,0.61c0.09,0.21,0.14,0.44,0.14,0.67c0,0.24-0.02,0.46-0.06,0.66c-0.05,0.25-0.13,0.48-0.23,0.69
			c-0.13,0.27-0.3,0.49-0.51,0.7l-0.15,0.15c-0.16,0.16-0.3,0.28-0.45,0.38c-0.11,0.09-0.22,0.16-0.34,0.21
			c-0.09,0.05-0.18,0.1-0.28,0.14c-0.21,0.14-0.45,0.24-0.7,0.28c-0.08,0.03-0.16,0.05-0.24,0.07c-0.04,0.02-0.08,0.03-0.12,0.05
			c-0.21,0.07-0.41,0.12-0.62,0.15c-0.13,0.02-0.27,0.04-0.4,0.05c-0.15,0.03-0.29,0.06-0.42,0.08c-0.2,0.03-0.43,0.05-0.68,0.05
			h-0.44c-0.21,0-0.43-0.02-0.67-0.06c-0.16,0-0.34-0.02-0.53-0.03c-0.23-0.02-0.45-0.05-0.66-0.09c-0.12-0.01-0.23-0.03-0.34-0.05
			c-0.16,0-0.33-0.02-0.52-0.06c-0.24-0.05-0.46-0.13-0.67-0.25l-6.86-1.71c-0.06-0.01-0.2-0.03-0.33-0.05
			c-0.16-0.02-0.33-0.04-0.48-0.08H4.13c-0.17,0-0.34-0.02-0.51-0.06H3.43c-0.35,0-0.66,0.03-0.94,0.08
			c-0.18,0.04-0.33,0.09-0.46,0.18c-0.25,0.14-0.42,0.28-0.58,0.46c-0.26,0.29-0.52,0.63-0.8,1c-0.08,0.11-0.18,0.28-0.26,0.45
			c-0.07,0.13-0.12,0.29-0.17,0.45c-0.07,0.24-0.12,0.47-0.17,0.71C0.02,32.22,0,32.41,0,32.6v0.41c0,0.39,0.04,0.75,0.11,1.1
			c0.06,0.29,0.15,0.54,0.25,0.73c0.15,0.3,0.32,0.53,0.53,0.76c0.24,0.26,0.57,0.53,0.97,0.81c0.09,0.06,0.17,0.13,0.25,0.21
			c0.03,0.03,0.06,0.06,0.1,0.09c0.05,0.04,0.09,0.07,0.13,0.1l0.19,0.1c0.23,0.08,0.45,0.2,0.64,0.36
			c0.35,0.19,0.76,0.38,1.21,0.55c0.56,0.22,1.22,0.42,1.98,0.59c0.83,0.22,1.7,0.38,2.65,0.49c1.01,0.11,2.15,0.21,3.39,0.28
			l0.21,0c0.18,0,0.36,0.02,0.54,0.06h0.73c0.18,0,0.36,0.02,0.54,0.06h0.36c1.6,0,3.09-0.11,4.42-0.33
			c1.29-0.21,2.49-0.54,3.55-0.99c1.1-0.48,2.13-1.06,3.03-1.7c0.88-0.63,1.69-1.38,2.41-2.23c0.39-0.43,0.69-0.83,0.94-1.25
			c0.28-0.48,0.55-0.95,0.8-1.41c0.21-0.49,0.4-0.97,0.57-1.46c0.15-0.41,0.27-0.83,0.37-1.24c0-0.19,0.02-0.37,0.04-0.55
			c0.02-0.16,0.04-0.33,0.08-0.49v-0.07c0-0.18,0.02-0.36,0.06-0.54v-0.3c0-0.87-0.12-1.72-0.36-2.52
			C30.44,23.39,30.08,22.56,29.61,21.76z"/>
		<path class="st0" d="M99.8,3.2c-0.12-0.27-0.26-0.53-0.41-0.77c-0.12-0.19-0.27-0.38-0.45-0.56c-0.23-0.26-0.41-0.41-0.61-0.53
			c-0.28-0.17-0.56-0.32-0.85-0.45c-0.23-0.09-0.52-0.18-0.79-0.24c-0.28-0.06-0.57-0.1-0.86-0.14L80.1,0.57
			c-0.74,0-1.4,0.12-1.98,0.36c-0.59,0.24-1.11,0.6-1.62,1.1c-0.51,0.48-0.86,0.99-1.1,1.57c-0.25,0.61-0.37,1.25-0.37,1.96v29.06
			c0,0.7,0.12,1.33,0.36,1.92c0.24,0.59,0.6,1.12,1.1,1.62c0.46,0.43,0.99,0.77,1.58,1c0.5,0.19,1.04,0.32,1.62,0.38
			c0.11-0.02,0.22-0.03,0.33-0.03c0.72,0,1.36-0.11,1.96-0.35c0.59-0.23,1.12-0.57,1.62-1.04c0.46-0.46,0.82-0.99,1.07-1.58
			c0.24-0.58,0.36-1.24,0.36-1.98V24.49h10.71c0.55,0,1.05-0.09,1.52-0.28c0.48-0.19,0.93-0.48,1.35-0.88
			c0.35-0.35,0.64-0.77,0.84-1.25c0.21-0.49,0.32-1.02,0.35-1.63c0-0.51-0.1-1-0.3-1.47c-0.21-0.49-0.52-0.95-0.92-1.38
			c-0.38-0.38-0.83-0.7-1.3-0.9c-0.49-0.21-1.01-0.32-1.58-0.35H85.03V10.5c0-0.46,0.18-0.9,0.51-1.23c0.32-0.32,0.76-0.5,1.22-0.5
			c0,0,0.01,0,0.01,0l9.11,0.06c0.26,0,0.52-0.03,0.76-0.08c0.25-0.05,0.49-0.13,0.73-0.24c0.3-0.13,0.61-0.29,0.91-0.45
			c0.21-0.12,0.39-0.25,0.54-0.4c0.24-0.24,0.43-0.47,0.59-0.69c0.14-0.2,0.26-0.44,0.37-0.71c0.13-0.29,0.21-0.54,0.26-0.79
			c0.05-0.25,0.08-0.51,0.08-0.77c0-0.26-0.03-0.52-0.08-0.77C99.98,3.68,99.9,3.43,99.8,3.2z"/>
		<path class="st0" d="M127.31,33.2c-0.11-0.22-0.24-0.44-0.38-0.63c-0.11-0.15-0.25-0.31-0.42-0.45c-0.31-0.3-0.53-0.48-0.76-0.61
			c-0.26-0.16-0.55-0.3-0.85-0.42c-0.28-0.11-0.57-0.2-0.87-0.25c-0.33-0.06-0.66-0.11-1-0.14h-8.62c-0.96,0-1.73-0.77-1.73-1.73
			v-5.3l10.18,0.03c0.25,0,0.51-0.03,0.76-0.08c0.27-0.06,0.55-0.14,0.85-0.26c0.32-0.13,0.62-0.27,0.9-0.43
			c0.25-0.14,0.47-0.3,0.69-0.49c0.18-0.16,0.32-0.32,0.43-0.49c0.15-0.24,0.29-0.5,0.41-0.77c0.1-0.24,0.19-0.48,0.24-0.72
			c0.06-0.25,0.1-0.52,0.13-0.81v-0.22L127,18.48c-0.04-0.11-0.08-0.21-0.13-0.3c-0.11-0.21-0.22-0.4-0.35-0.56
			c-0.15-0.19-0.31-0.38-0.49-0.56c-0.21-0.21-0.44-0.39-0.66-0.53c-0.26-0.16-0.55-0.3-0.85-0.42c-0.28-0.11-0.57-0.2-0.86-0.26
			c-0.31-0.06-0.62-0.11-0.96-0.14h-2.03h-8v-5.27c0-0.46,0.18-0.9,0.51-1.23c0.33-0.33,0.72-0.48,1.23-0.5l9.17,0.06
			c0.54,0,1.05-0.1,1.52-0.28c0.45-0.18,0.89-0.48,1.31-0.89c0.36-0.39,0.66-0.85,0.87-1.36c0.2-0.49,0.3-1.01,0.3-1.6
			c0-0.58-0.1-1.09-0.3-1.55c-0.21-0.49-0.52-0.96-0.92-1.39c-0.36-0.33-0.82-0.64-1.28-0.85c-0.43-0.2-0.94-0.31-1.49-0.34
			l-15.86,0.06c-0.75,0-1.43,0.12-2.02,0.35c-0.57,0.22-1.09,0.57-1.58,1.06c-0.46,0.46-0.8,0.97-1.04,1.57
			c-0.25,0.61-0.37,1.25-0.37,1.96v28.25c0,0.18,0.01,0.35,0.02,0.51c0.01,0.11,0.02,0.23,0.04,0.33c0.07,0.22,0.14,0.43,0.19,0.64
			c0.04,0.14,0.07,0.21,0.08,0.23c0.05,0.1,0.09,0.2,0.12,0.3c0.23,0.46,0.49,0.87,0.78,1.24c0.29,0.38,0.64,0.7,1.07,0.98
			c0.43,0.29,0.87,0.5,1.29,0.62c0.45,0.13,0.89,0.19,1.34,0.19h15.6c0.33,0,0.64-0.02,0.92-0.07c0.23-0.04,0.49-0.11,0.75-0.22
			c0.3-0.12,0.58-0.26,0.84-0.42c0.27-0.16,0.51-0.34,0.75-0.55c0.18-0.15,0.32-0.32,0.43-0.49c0.15-0.24,0.29-0.5,0.41-0.77
			c0.11-0.24,0.19-0.49,0.24-0.72c0.05-0.22,0.08-0.47,0.08-0.73v-0.41c-0.01-0.12-0.06-0.35-0.13-0.59
			C127.51,33.65,127.42,33.42,127.31,33.2z"/>
		<path class="st0" d="M177.58,17.66c-0.01-0.05-0.01-0.1-0.02-0.15c-0.04-0.38-0.09-0.77-0.16-1.17l-0.23-1.29
			c-0.55-2.2-1.43-4.27-2.61-6.05c-1.17-1.76-2.67-3.3-4.46-4.56c-1.79-1.27-3.93-2.23-6.35-2.87c-2.48-0.66-5.3-1.01-8.4-1.05
			l-7.91,0.06c-0.74,0-1.41,0.12-1.99,0.36c-0.59,0.24-1.11,0.6-1.61,1.1c-0.46,0.46-0.8,0.97-1.04,1.57
			c-0.25,0.61-0.37,1.23-0.37,1.91v28.25c0,0.79,0.12,1.46,0.36,2.03c0.24,0.59,0.6,1.12,1.1,1.62c0.49,0.49,1.01,0.84,1.57,1.07
			c0.56,0.23,1.21,0.34,1.91,0.34h10.03c2.99,0,5.73-0.44,8.14-1.32c2.37-0.86,4.52-2.21,6.38-4c1.88-1.77,3.31-3.8,4.28-6.05
			c0.97-2.25,1.48-4.78,1.51-7.52c0-0.38-0.01-0.79-0.03-1.21C177.68,18.36,177.64,18,177.58,17.66z M167.06,24.22
			c-0.56,1.27-1.39,2.45-2.48,3.49c-1.12,1.03-2.39,1.8-3.82,2.32c-1.31,0.48-2.76,0.72-4.32,0.72l-2.33,0
			c-0.96,0-1.73-0.77-1.73-1.73V10.39c0-0.47,0.19-0.91,0.52-1.24c0.33-0.33,0.81-0.49,1.25-0.49l1.45,0.06c0,0,0,0,0,0
			c1.51,0,2.97,0.2,4.28,0.6c1.34,0.4,2.56,0.99,3.64,1.75c1.08,0.8,1.96,1.72,2.63,2.76c0.67,1.04,1.15,2.2,1.42,3.44
			c0.05,0.28,0.09,0.53,0.12,0.77c0.02,0.15,0.04,0.29,0.06,0.42c0.02,0.11,0.03,0.22,0.03,0.33c0,0.13,0.01,0.27,0.02,0.4
			c0.01,0.15,0.04,0.28,0.06,0.42c0.02,0.11,0.04,0.23,0.04,0.35C167.9,21.51,167.62,22.94,167.06,24.22z"/>
		<path class="st0" d="M191.43,2.49c-1.4,0.76-2.71,1.64-3.86,2.65c-1.22,1.06-2.3,2.28-3.22,3.62c-0.42,0.62-0.81,1.26-1.17,1.9
			h8.25V2.49z"/>
		<path class="st0" d="M221.67,18.54v-0.14c-0.03-0.7-0.15-1.5-0.33-2.3c-0.2-0.84-0.44-1.69-0.73-2.53
			c-0.28-0.81-0.63-1.63-1.04-2.42c-0.41-0.8-0.89-1.6-1.43-2.4c-0.94-1.32-2.04-2.55-3.25-3.62c-1.2-1.06-2.57-2-4.07-2.78
			c-1.49-0.78-3.06-1.38-4.65-1.77c-2.08-0.51-4.29-0.68-6.43-0.53c0.01,0.07,0.04,0.13,0.04,0.2v10.39h10.39
			c0.83,0,1.5,0.67,1.5,1.49v5.37c0,0.82-0.67,1.49-1.5,1.49h-10.39v10.4c0,0.82-0.67,1.49-1.5,1.49h-5.37
			c-0.83,0-1.49-0.67-1.49-1.49v-10.4h-10.4c-0.09,0-0.18-0.04-0.27-0.05c0,0.01,0,0.02,0,0.03v1.51c0.03,0.1,0.04,0.2,0.05,0.3
			c0.07,0.86,0.19,1.73,0.35,2.61c0.16,0.85,0.38,1.68,0.66,2.48c0.29,0.86,0.64,1.67,1.05,2.45c0.42,0.79,0.9,1.54,1.42,2.24
			c0.08,0.11,0.15,0.23,0.21,0.36c0.88,1.28,1.91,2.43,3.05,3.43c1.22,1.06,2.59,1.97,4.07,2.72c1.51,0.79,3.06,1.36,4.62,1.71
			c3.15,0.71,6.69,0.72,9.95,0c1.58-0.35,3.13-0.92,4.62-1.7c1.51-0.76,2.87-1.67,4.07-2.72c1.21-1.07,2.31-2.31,3.26-3.69
			c0.61-0.86,1.13-1.74,1.54-2.6c0.43-0.9,0.82-1.84,1.14-2.78c0.27-0.87,0.49-1.82,0.66-2.74c0.16-0.9,0.24-1.84,0.24-2.78v-0.76
			C221.69,18.86,221.67,18.7,221.67,18.54z"/>
		<path class="st0" d="M71.89,33.66c-0.02-0.08-0.04-0.17-0.05-0.26c-0.03-0.21-0.07-0.42-0.14-0.64c-0.09-0.29-0.2-0.61-0.31-0.95
			L61.44,6.43c-0.4-1-0.9-1.91-1.49-2.7c-0.56-0.75-1.22-1.39-1.95-1.9c-0.75-0.57-1.51-0.97-2.33-1.21c-1.72-0.52-3.73-0.52-5.4,0
			c-0.81,0.25-1.59,0.65-2.32,1.19c-0.77,0.54-1.43,1.18-1.99,1.93c-0.59,0.79-1.09,1.69-1.5,2.67l-9.85,25.54
			c-0.1,0.26-0.19,0.54-0.28,0.82c-0.07,0.21-0.11,0.42-0.14,0.63c-0.01,0.08-0.03,0.17-0.05,0.25c-0.05,0.19-0.1,0.4-0.12,0.6
			c-0.03,0.2-0.04,0.41-0.04,0.61c0,0.49,0.06,0.94,0.19,1.36c0.13,0.43,0.29,0.84,0.49,1.21c0.24,0.32,0.52,0.62,0.85,0.87
			c0.27,0.2,0.57,0.38,0.91,0.53c0.11,0.01,0.22,0.04,0.33,0.07l0.7,0.23c0.13,0.04,0.28,0.08,0.43,0.11
			c0.08,0.01,0.17,0.04,0.25,0.06c0.1,0.03,0.21,0.06,0.31,0.06c0.64,0.05,1.31,0.01,1.94-0.19c0.46-0.14,0.91-0.36,1.35-0.66
			c0.37-0.28,0.75-0.66,1.08-1.09c0.32-0.44,0.59-0.97,0.81-1.58l0.19-0.51h0l7.5-21.54c0.21-0.75,0.89-1.26,1.67-1.26
			c0.77,0,1.46,0.52,1.67,1.26l7.63,21.93l0.07,0.21c0.19,0.52,0.47,1.06,0.79,1.51c0.29,0.42,0.66,0.79,1.08,1.1
			c0.38,0.25,0.83,0.47,1.29,0.61c0.45,0.14,0.94,0.21,1.46,0.21h0.19c0.16-0.04,0.33-0.06,0.51-0.06h0.04
			c0.15-0.03,0.3-0.06,0.45-0.07c0.04-0.01,0.09-0.01,0.13-0.02c0.09-0.04,0.19-0.07,0.28-0.09c0.18-0.08,0.36-0.15,0.54-0.19
			c0.09-0.04,0.07-0.04,0.16-0.07c0.45-0.13,0.84-0.32,1.17-0.58c0.36-0.28,0.67-0.59,0.91-0.95c0.24-0.35,0.43-0.73,0.55-1.14
			c0.13-0.42,0.19-0.87,0.19-1.36c0-0.2-0.02-0.4-0.04-0.62C71.98,34.05,71.94,33.85,71.89,33.66z"/>
	</g>
</g>
</svg>
