<svg width="41" height="40" viewBox="0 0 41 40" fill="none" xmlns="http://www.w3.org/2000/svg">
<g clip-path="url(#clip0_14_71)">
<path d="M10.6702 2.48999C9.26016 3.24999 7.96016 4.12999 6.80016 5.13999C5.58016 6.19999 4.50016 7.40999 3.58016 8.74999C3.16016 9.36999 2.77016 10.01 2.41016 10.65H10.6602V2.48999H10.6702Z" fill="#1C75BC"/>
<path d="M40.92 18.54V18.4C40.89 17.7 40.77 16.9 40.59 16.1C40.39 15.26 40.15 14.41 39.86 13.57C39.58 12.76 39.23 11.94 38.82 11.15C38.41 10.35 37.93 9.55004 37.39 8.75004C36.45 7.43004 35.35 6.20004 34.14 5.13004C32.94 4.07004 31.57 3.13004 30.07 2.35004C28.58 1.57004 27.01 0.970038 25.42 0.580038C23.34 0.0700383 21.13 -0.0999617 18.99 0.0500383C19 0.120038 19.03 0.180038 19.03 0.250038V10.64H29.42C30.25 10.64 30.92 11.31 30.92 12.13V17.5C30.92 18.32 30.25 18.99 29.42 18.99H19.03V29.39C19.03 30.21 18.36 30.88 17.53 30.88H12.16C11.33 30.88 10.67 30.21 10.67 29.39V18.99H0.27C0.18 18.99 0.09 18.95 0 18.94C0 18.95 0 18.96 0 18.97V20.48C0.03 20.58 0.04 20.68 0.05 20.78C0.12 21.64 0.24 22.51 0.4 23.39C0.56 24.24 0.78 25.07 1.06 25.87C1.35 26.73 1.7 27.54 2.11 28.32C2.53 29.11 3.01 29.86 3.53 30.56C3.61 30.67 3.68 30.79 3.74 30.92C4.62 32.2 5.65 33.35 6.79 34.35C8.01 35.41 9.38 36.32 10.86 37.07C12.37 37.86 13.92 38.43 15.48 38.78C18.63 39.49 22.17 39.5 25.43 38.78C27.01 38.43 28.56 37.86 30.05 37.08C31.56 36.32 32.92 35.41 34.12 34.36C35.33 33.29 36.43 32.05 37.38 30.67C37.99 29.81 38.51 28.93 38.92 28.07C39.35 27.17 39.74 26.23 40.06 25.29C40.33 24.42 40.55 23.47 40.72 22.55C40.88 21.65 40.96 20.71 40.96 19.77V19.01C40.93 18.86 40.92 18.7 40.92 18.54Z" fill="#1C75BC"/>
</g>
<defs>
<clipPath id="clip0_14_71">
<rect width="40.97" height="39.34" fill="white"/>
</clipPath>
</defs>
</svg>
