<svg width="34" height="25" viewBox="0 0 34 25" fill="none" xmlns="http://www.w3.org/2000/svg">
<path d="M30.2868 0H3.71769C1.46269 0 0.00474704 1.48607 0.00390625 3.78397C0.00390625 9.59523 0.00390625 15.4056 0.00390625 21.2152C0.00390625 22.3332 0.356202 23.286 1.02127 23.9671C1.68634 24.6483 2.61878 24.9991 3.71685 24.9991H30.2859C32.5409 24.9991 33.9989 23.5139 33.9997 21.2152C33.9997 15.4051 33.9997 9.59466 33.9997 3.78397C33.9989 1.48607 32.5392 0.000859993 30.2868 0ZM31.7581 3.87427V21.2401L23.0055 12.9231L31.7581 3.87427ZM16.9778 15.4377C16.6525 15.4377 16.3296 15.2752 16.021 14.9561C12.4443 11.2582 8.81206 7.49226 5.29838 3.85191L3.76394 2.26179H30.2632C26.2417 6.41297 22.0865 10.7026 17.996 14.9183C17.6572 15.2632 17.3209 15.4377 16.9778 15.4377ZM12.5284 14.521C12.5385 14.5304 12.5477 14.539 12.5561 14.5485C12.7882 14.7864 13.0191 15.0258 13.2489 15.2666C13.6592 15.6966 14.0838 16.1361 14.5101 16.5635C15.9395 18.0005 18.0255 18.0005 19.4649 16.5635C19.9643 16.0655 20.4621 15.5642 20.9716 15.0516L21.4853 14.5356L30.1253 22.7322H3.87744L12.5284 14.521ZM10.9964 12.9352L2.23033 21.253V3.86223L10.9964 12.9352Z" fill="#1470CF"/>
</svg>
