<svg width="38" height="62" viewBox="0 0 38 62" fill="none" xmlns="http://www.w3.org/2000/svg">
<g clip-path="url(#clip0_418_10)">
<path d="M18.9717 54.8266C13.9421 46.8913 8.23026 39.4556 4.00336 31.1781C2.32247 27.8928 0.886896 24.522 0.248216 20.8862C-1.25123 12.3411 4.0411 3.88014 12.6938 1.01705C24.0057 -2.72359 36.0709 4.20715 37.8055 15.4387C38.3861 19.2318 37.5355 22.829 36.1594 26.3516C34.1984 31.3865 31.4216 36.0323 28.4561 40.576C25.4078 45.2535 22.2914 49.8965 19.2039 54.5534C19.1546 54.6265 19.0907 54.6886 18.9717 54.8266ZM19.0167 25.3692C20.5389 25.3653 22.0258 24.9323 23.289 24.1249C24.5522 23.3175 25.5351 22.172 26.1132 20.8334C26.6912 19.4948 26.8385 18.0232 26.5365 16.605C26.2344 15.1868 25.4965 13.8856 24.4161 12.8662C23.3358 11.8468 21.9616 11.155 20.4674 10.8783C18.9733 10.6015 17.4263 10.7524 16.0224 11.3118C14.6185 11.8711 13.4207 12.8138 12.5807 14.0205C11.7406 15.2272 11.296 16.6437 11.3032 18.0907C11.3047 19.051 11.5058 20.0016 11.8949 20.8878C12.2841 21.774 12.8536 22.5783 13.5708 23.2547C14.2879 23.931 15.1386 24.466 16.074 24.8289C17.0093 25.1917 18.0108 25.3754 19.021 25.3692H19.0167Z" fill="#1470CF"/>
<path d="M15.5841 52.6582C14.7245 52.8212 13.9095 52.9359 13.1244 53.138C12.4694 53.3116 11.8303 53.5378 11.2135 53.8145C10.7958 53.9967 10.367 54.2698 10.3679 54.8025C10.3679 55.3197 10.7819 55.5983 11.1903 55.7531C12.0787 56.0891 12.9792 56.4506 13.9086 56.6172C17.6475 57.2892 21.3882 57.2755 25.101 56.405C25.6106 56.2806 26.1063 56.1074 26.5811 55.8878C27.0658 55.6675 27.637 55.4326 27.6417 54.8061C27.6473 54.1533 27.0677 53.8847 26.5597 53.6944C25.749 53.4031 24.9226 53.1554 24.0842 52.9523C23.5642 52.8202 23.0227 52.7702 22.4274 52.6718C22.7483 52.1801 23.0367 51.723 23.3474 51.2796C23.384 51.2371 23.43 51.2034 23.4819 51.181C23.5338 51.1586 23.5903 51.1481 23.647 51.1503C25.6825 51.4854 27.6891 51.9215 29.4725 53.0042C29.8658 53.2449 30.2255 53.5348 30.5423 53.8664C31.3722 54.7387 31.3592 55.7458 30.5423 56.6317C29.8381 57.3911 28.932 57.85 27.9794 58.2261C25.9327 59.0319 23.793 59.3943 21.6105 59.5664C18.5071 59.8114 15.4259 59.6575 12.3876 58.9463C11.1214 58.6504 9.87576 58.2753 8.7594 57.6015C8.29571 57.3299 7.8693 57.0016 7.49047 56.6245C6.63181 55.744 6.60483 54.6741 7.51838 53.8473C8.1708 53.2724 8.90463 52.7928 9.69714 52.4232C11.1503 51.7267 12.7327 51.4053 14.3254 51.1667C14.395 51.163 14.4646 51.1746 14.529 51.2008C14.5934 51.227 14.651 51.267 14.6975 51.3179C14.9989 51.7394 15.2724 52.1792 15.5841 52.6582Z" fill="#1470CF"/>
</g>
<defs>
<clipPath id="clip0_418_10">
<rect width="38" height="62" fill="white"/>
</clipPath>
</defs>
</svg>
