<?xml version="1.0" encoding="utf-8"?>
<!-- Generator: Adobe Illustrator 24.3.0, SVG Export Plug-In . SVG Version: 6.00 Build 0)  -->
<svg version="1.1" id="레이어_1" xmlns="http://www.w3.org/2000/svg" xmlns:xlink="http://www.w3.org/1999/xlink" x="0px"
	 y="0px" viewBox="0 0 24.5 24.5" style="enable-background:new 0 0 24.5 24.5;" xml:space="preserve">
<style type="text/css">
	.st0{fill:#FFFFFF;}
</style>
<path class="st0" d="M12.3,0C5.6,0,0,5.6,0,12.3c0,3.2,1.3,6.3,3.6,8.6c2.3,2.3,5.3,3.6,8.6,3.6c0,0,0,0,0,0c3.3,0,6.4-1.3,8.7-3.6
	c2.3-2.3,3.6-5.4,3.6-8.7C24.5,5.5,19,0,12.3,0z M23,11.6c-0.3,0-0.5,0-0.8,0c-0.2,0-0.3,0-0.5,0l-0.5,0l-0.5,0c-0.4,0-0.8,0-1.3,0
	c0-1.7-0.3-3.5-0.9-5.1c0.6-0.4,1.2-0.8,1.8-1.3c0,0,0,0,0,0C22,7,22.9,9.1,23,11.6L23,11.6z M12.9,4.2l0-0.7c0-0.6,0-1.2,0-1.9
	C13.5,1.7,14,2,14.5,2.3l0.2,0.1c0.9,0.8,1.6,1.8,2.3,3.3c-1.2,0.6-2.5,0.9-4,1c0-0.6,0-1.3,0-1.9L12.9,4.2z M19.4,4.1
	c-0.4,0.3-0.8,0.7-1.3,1C17.6,4,17,3,16.3,2.2C17.4,2.7,18.4,3.3,19.4,4.1L19.4,4.1L19.4,4.1z M17.4,17.4c-1.4-0.7-2.9-1-4.5-1.1
	l0-0.1c0-1.1,0-2.1,0-3.2c0.6,0,1.3,0,1.9,0l0.7,0l0.7,0c0.6,0,1.2,0,1.9,0C18.1,14.4,17.8,15.9,17.4,17.4z M12.9,8.2
	c1.5-0.1,3-0.4,4.4-1.1c0.4,1.4,0.7,2.9,0.7,4.5c-0.4,0-0.8,0-1.2,0c-0.2,0-0.4,0-0.7,0l-0.7,0l-0.7,0c-0.6,0-1.3,0-1.9,0
	C12.9,10.5,12.9,9.3,12.9,8.2z M12.9,20.3l0-2.4c0-0.1,0-0.2,0-0.3c0.1,0,0.2,0,0.2,0c1.3,0.1,2.5,0.4,3.8,1c-0.6,1.3-1.2,2.3-2,3.1
	c-0.6,0.6-1.3,1-2,1.1V20.3z M19.4,20.3c-1,0.9-2,1.5-3.1,1.9c0.7-0.8,1.3-1.8,1.8-2.9C18.6,19.6,19,20,19.4,20.3z M18.6,18
	c0.5-1.6,0.8-3.3,0.9-5.1c0.4,0,0.8,0,1.3,0l0.5,0l0.5,0c0.4,0,0.9,0,1.3,0c0,0.1,0,0.3,0,0.4c0,0.1,0,0.2,0,0.3
	c-0.3,2.2-1.1,4.1-2.6,5.8C19.8,18.9,19.2,18.4,18.6,18z M4,4.9L4.2,5c0,0,0,0,0,0L4,4.9C4,4.9,4,4.9,4,4.9z M11.6,4.2l0,0.7
	c0,0.6,0,1.3,0,1.9c-1.4-0.1-2.7-0.4-4-1c0.6-1.3,1.2-2.3,2-3c0.6-0.6,1.2-1,2-1.1l0.1,0c0,0.6,0,1.2,0,1.8L11.6,4.2z M6.4,19.3
	c0.5,1.2,1.1,2.1,1.8,2.9c-0.2-0.1-0.3-0.1-0.5-0.2c-1-0.4-1.8-1-2.6-1.7C5.5,20,5.9,19.6,6.4,19.3z M11.6,16.3
	c-1.5,0.1-3,0.4-4.5,1.1c-0.4-1.4-0.7-2.9-0.7-4.5c0.6,0,1.3,0,1.9,0l0.7,0l0.7,0c0.6,0,1.3,0,1.9,0C11.6,14,11.6,15.1,11.6,16.3z
	 M11.6,11.6c-0.4,0-0.9,0-1.3,0c-0.2,0-0.4,0-0.7,0l-0.7,0l-0.7,0c-0.6,0-1.2,0-1.9,0c0-0.5,0.1-0.9,0.1-1.4c0.1-1,0.3-2.1,0.6-3.1
	c1.4,0.6,2.9,1,4.4,1.1C11.6,9.3,11.6,10.4,11.6,11.6z M6.9,6.9l0.3,0c0,0,0,0,0,0.1L6.9,6.9L6.9,6.9z M11.6,22.9
	c-0.6-0.1-1.1-0.4-1.6-0.8l0,0c-1.2-1-1.9-2.3-2.4-3.4c1.3-0.6,2.6-0.9,4-1l0,3.3C11.6,21.6,11.6,22.2,11.6,22.9z M7,3.9
	C6.8,4.3,6.6,4.7,6.4,5.1C6,4.8,5.5,4.5,5.1,4.1C6,3.4,7,2.7,8.2,2.2C7.7,2.7,7.3,3.3,7,3.9z M5,11.6c-0.3,0-0.5,0-0.8,0
	c-0.2,0-0.3,0-0.5,0l-0.5,0l-0.5,0c-0.4,0-0.8,0-1.3,0c0-0.1,0-0.2,0-0.4c0-0.1,0-0.2,0-0.3c0.3-2.2,1.2-4.1,2.6-5.8
	C4.7,5.6,5.3,6,5.9,6.4C5.4,8.1,5.1,9.8,5,11.6z M2.6,12.9l0.6,0l0.5,0c0.4,0,0.9,0,1.3,0c0,1.7,0.3,3.5,0.9,5.1
	c-0.6,0.4-1.2,0.8-1.8,1.3c-1.6-1.8-2.5-4-2.7-6.4C1.8,12.9,2.2,12.9,2.6,12.9z"/>
</svg>
