<?xml version="1.0" encoding="utf-8"?>
<!-- Generator: Adobe Illustrator 24.3.0, SVG Export Plug-In . SVG Version: 6.00 Build 0)  -->
<svg version="1.1" id="레이어_1" xmlns="http://www.w3.org/2000/svg" xmlns:xlink="http://www.w3.org/1999/xlink" x="0px"
	 y="0px" viewBox="0 0 34 34" style="enable-background:new 0 0 34 34;" xml:space="preserve">
<style type="text/css">
	.st0{fill:#FFFFFF;}
</style>
<g>
	<path class="st0" d="M7.9,0.1c0.8,0.2,1.5,0.7,2,1.6c1.3,2.3,2.6,4.5,3.9,6.8c0.4,0.6,0.5,1.2,0.5,1.8c0,0.9-0.5,1.8-1.4,2.4
		c-0.9,0.7-1.9,1.2-2.7,1.7C10,14.5,10,14.5,10,14.5c0,0,0,0.1,0,0.1l0,0.1c0.1,0.3,0.1,0.6,0.3,0.9c1.5,3.4,3.9,6,7.3,7.7
		c0.5,0.3,1,0.5,1.6,0.6c0.1,0,0.2,0.1,0.3,0.1c0.1-0.1,0.2-0.2,0.2-0.4l0.2-0.3c0.5-0.8,1-1.7,1.6-2.5c1-1.3,2.5-1.6,3.9-0.8
		c2.6,1.5,5,2.8,7.1,4.1c1,0.6,1.5,1.5,1.5,2.6c0,0.6-0.2,1.1-0.4,1.6C31.3,32.2,28,34,23.6,34h0c-0.1,0-0.2,0-0.3,0h0
		c-0.4,0-0.8-0.1-1.3-0.1c-0.7-0.1-1.4-0.2-2.1-0.4C15,32,11,29.7,7.8,26.5c-3.2-3.1-5.6-7.2-7.1-12C0.2,13.1,0,11.6,0,10.2
		C0,9.4,0.1,8.7,0.2,8c0.5-3.1,2.3-5.6,5.3-7.4C6.3,0,7.1-0.1,7.9,0.1z M18.7,26.3c-1.5-0.3-2.8-1.1-4-1.9c-3-2-5.2-4.7-6.6-7.9
		c-0.2-0.4-0.3-0.9-0.4-1.3c0-0.2-0.1-0.4-0.1-0.7c0-0.9,0.5-1.6,1.4-2.2l0.1-0.1c0.8-0.4,1.6-0.9,2.3-1.4c0.5-0.4,0.5-0.5,0.5-0.6
		c0-0.1-0.1-0.4-0.3-0.7L7.8,2.9C7.7,2.6,7.5,2.4,7.3,2.4c-0.2,0-0.4,0-0.7,0.2C3.8,4.4,2.4,6.8,2.4,9.8c0,0.6,0,1.1,0.1,1.7
		c1,6.1,4.2,11.3,9.5,15.4c3,2.3,6.3,3.8,9.9,4.5c0.5,0.1,1,0.1,1.5,0.2h0c0.2,0,0.4,0,0.7,0.1c3.3,0,5.7-1.5,7.5-4.4
		c0.1-0.1,0.1-0.3,0.2-0.4c0-0.1,0-0.3-0.4-0.5c-2.3-1.3-4.6-2.7-7-4c-0.5-0.3-0.7-0.2-1,0.2c-0.6,0.8-1.1,1.6-1.6,2.5
		C21,26.2,20.1,26.6,18.7,26.3z"/>
</g>
</svg>
