<svg width="34" height="34" viewBox="0 0 34 34" fill="none" xmlns="http://www.w3.org/2000/svg">
<path d="M7.91654 0.0847127C8.71718 0.286102 9.39431 0.833217 9.87711 1.66643C11.1865 3.92751 12.507 6.21365 13.8 8.4609C14.1627 9.09013 14.3458 9.69948 14.3458 10.2699C14.3458 11.2043 13.8743 12.0228 12.9423 12.7013C12.0476 13.3547 11.0742 13.9113 10.2148 14.3962C10.0499 14.4904 10.0265 14.5432 10.0265 14.5432C10.0239 14.5723 10.0268 14.6016 10.0352 14.6296L10.0464 14.6815C10.1031 15.0021 10.1899 15.3166 10.3055 15.621C11.7902 19.0152 14.2336 21.6082 17.5674 23.3264C18.0644 23.5813 18.5851 23.7869 19.122 23.9401C19.2203 23.9731 19.3215 23.9963 19.4243 24.0093C19.5152 23.8999 19.5951 23.7818 19.6627 23.6566L19.8259 23.3826C20.3234 22.5477 20.8373 21.6834 21.4376 20.883C22.4127 19.5865 23.9103 19.2857 25.3467 20.1051C27.9714 21.6012 30.3034 22.9522 32.4764 24.2323C33.4265 24.7915 33.9922 25.7492 33.9922 26.795C33.9876 27.3538 33.8328 27.9011 33.5439 28.3793C31.2932 32.165 28.0474 34.0043 23.621 33.9974L23.5744 33.9974C23.4975 33.9905 23.4016 33.9853 23.2859 33.9775L23.2747 33.9775C22.9231 33.9559 22.4403 33.9265 21.9524 33.8548C21.2521 33.7646 20.5593 33.6236 19.8795 33.433C15.029 31.9896 10.9507 29.662 7.75848 26.5132C4.56628 23.3645 2.18163 19.316 0.676224 14.4853C0.232624 13.0897 0.0028651 11.635 -0.00522967 10.1705C-0.00540895 9.42925 0.057587 8.6893 0.18306 7.95873C0.720272 4.82036 2.44074 2.39506 5.44207 0.546264C6.2643 0.0423619 7.11849 -0.116677 7.91654 0.0847127ZM18.7222 26.2945C17.1848 25.9661 15.8815 25.196 14.7034 24.412C11.7055 22.4198 9.48068 19.7568 8.09014 16.4974C7.91311 16.0725 7.77998 15.6305 7.69284 15.1784C7.64745 14.9612 7.62373 14.74 7.62202 14.5181C7.62202 13.6054 8.09187 12.8759 9.01774 12.3383L9.1352 12.2708C9.90389 11.8283 10.6993 11.3702 11.4223 10.8611C11.9595 10.4834 11.9595 10.3227 11.9595 10.2622C11.9595 10.1169 11.8653 9.88012 11.6796 9.55773L7.8414 2.91625C7.66348 2.60941 7.48642 2.42617 7.32923 2.38728C7.17203 2.34838 6.9302 2.42531 6.6305 2.612C3.81056 4.36486 2.37683 6.79621 2.37683 9.83604C2.3787 10.4079 2.42607 10.9787 2.51848 11.5431C3.50136 17.6608 6.68405 22.8381 11.9785 26.9281C14.9746 29.2445 18.292 30.7536 21.8383 31.4131C22.3091 31.4995 22.8109 31.5479 23.2988 31.5946L23.3118 31.5946C23.5286 31.6153 23.7523 31.6361 23.9743 31.6611C27.2511 31.6119 29.7014 30.1589 31.4659 27.2194C31.5554 27.088 31.609 26.9354 31.6214 26.7768C31.6214 26.7051 31.6214 26.4856 31.2146 26.2487C28.956 24.9315 26.612 23.5788 24.2403 22.2166C23.7307 21.9245 23.5718 21.9962 23.2902 22.3947C22.7247 23.1971 22.2014 24.0286 21.7226 24.8857C20.998 26.1675 20.0997 26.5893 18.7222 26.2945Z" fill="#1470CF"/>
</svg>
