<svg width="29" height="40" viewBox="0 0 29 40" fill="none" xmlns="http://www.w3.org/2000/svg">
<g clip-path="url(#clip0_7_81)">
<path d="M28.9947 13.8832V13.8574C28.9695 13.6583 28.9478 13.4583 28.9251 13.2592C28.8774 12.8302 28.8272 12.387 28.7576 11.9505C28.4474 10.1043 27.774 8.3371 26.7758 6.7503C25.7776 5.16349 24.4744 3.78823 22.9409 2.70336C19.8093 0.464891 16.0152 -0.425664 12.2555 0.194142C7.06271 1.05054 3.33479 3.93381 1.18649 8.76313C-0.220584 11.9121 -0.37553 15.0753 0.718304 18.1635C1.39728 20.0689 2.21638 21.9219 3.16896 23.7076C5.74609 28.5478 8.92206 33.3821 13.4708 39.3811C13.7815 39.7918 14.1232 40 14.4859 40C14.851 40 15.1978 39.7893 15.5161 39.3719C18.5681 35.3732 21.1661 31.5977 23.4593 27.8297C25.0255 25.2546 26.7936 22.1698 28.0214 18.8175C28.5374 17.4096 29.0558 15.7218 28.9947 13.8832ZM25.7936 18.4584C24.5289 21.6341 22.8027 24.5899 21.4383 26.8108C19.5053 29.9615 17.2305 33.2938 14.4867 36.9985C14.4817 37.0051 14.4767 37.011 14.4716 37.0185C14.0942 36.4853 13.7181 35.9577 13.3435 35.4356C12.3384 34.0286 11.3937 32.6998 10.4539 31.3236C8.20679 28.0329 5.88344 24.4566 4.11371 20.5986C3.46156 19.1946 2.92407 17.7406 2.50646 16.2508C1.94447 14.1989 2.19322 12.0088 3.26528 9.55372C4.2179 7.37874 5.78792 5.52754 7.78282 4.2271C9.77771 2.92667 12.1108 2.23353 14.4959 2.23267C14.8016 2.23267 15.109 2.2435 15.4172 2.26683C20.8546 2.67337 25.3003 6.53632 26.4812 11.8797C26.946 13.9798 26.7207 16.1317 25.7936 18.4584Z" fill="#1470CF"/>
<path d="M14.5204 7.81177H14.4919C12.7304 7.80956 11.0402 8.50346 9.79304 9.74081C8.54591 10.9782 7.84402 12.6576 7.8418 14.4097C7.83958 16.1618 8.5372 17.843 9.7812 19.0835C11.0252 20.324 12.7137 21.0221 14.4752 21.0243H14.4927C16.2542 21.028 17.9451 20.3354 19.1932 19.0991C20.4414 17.8628 21.1446 16.1839 21.1483 14.4318C21.152 12.6797 20.4557 10.9979 19.2128 9.75642C17.9698 8.51493 16.2819 7.81542 14.5204 7.81177ZM14.4886 10.0861C15.6442 10.0868 16.7522 10.5442 17.5688 11.3575C18.3854 12.1709 18.8437 13.2736 18.843 14.423C18.8422 15.5725 18.3824 16.6746 17.5647 17.4868C16.7469 18.2991 15.6383 18.755 14.4827 18.7542H14.4726C13.317 18.7521 12.2095 18.2935 11.3939 17.4792C10.5782 16.6649 10.1212 15.5617 10.1233 14.4122C10.1254 13.2627 10.5865 12.1612 11.4051 11.3499C12.2238 10.5386 13.3329 10.084 14.4886 10.0861Z" fill="#1470CF"/>
</g>
<defs>
<clipPath id="clip0_7_81">
<rect width="29" height="40" fill="white"/>
</clipPath>
</defs>
</svg>
